# xmcd CD database file
#
# Track frame offsets:
#	150
#	14043
#	28888
#	41137
#	55677
#	69477
#	83597
#	96968
#	111396
#	124504
#	136250
#	151002
#	165997
#	180961
#	195782
#	210984
#	236747
#	251234
#	266881
#	281302
#	293169
#	305744
#	318981
#	331673
#
# Disc length: 4619 seconds
#
# Revision: 0
# Processed by: cddbd v1.5.1PL0 Copyright (c) Steve Scherf et al.
# Submitted via: CDex 1.51
#
DISCID=49120918
DTITLE=Duke Ellington - The Duke Steps Out(24 original mono recordings 1924-1929)
DYEAR=2004
DGENRE=Jazz
TTITLE0=East St. Louis Toodle-oo
TTITLE1=Choo Choo(Gotta Hurry Home)
TTITLE2=Birmingham Breakdown
TTITLE3=Creole Love Call(With Adelaide Hall)
TTITLE4=The Blues I Love To Sing(With Adelaide Hall)
TTITLE5=Black And Tan Fantasy
TTITLE6=Washington Wobble
TTITLE7=Take It Easy
TTITLE8=Black Beauty
TTITLE9=Jubilee Stomp
TTITLE10=The Mooche(With Baby Cox)
TTITLE11=Hot And Bothered
TTITLE12=Awful Sad
TTITLE13=The Blues With A Feelin'
TTITLE14=Misty Mornin'
TTITLE15=Tiger Rag
TTITLE16=Doin' The Voom Voom
TTITLE17=Rent Party Blues
TTITLE18=The Dicty Glide
TTITLE19=Hot Feet
TTITLE20=Stevedore Stomp
TTITLE21=Cotton Club Stomp
TTITLE22=Saratoga Swing
TTITLE23=The Duke Steps Out
EXTD=YEAR: 2004
EXTT0=
EXTT1=
EXTT2=
EXTT3=
EXTT4=
EXTT5=
EXTT6=
EXTT7=
EXTT8=
EXTT9=
EXTT10=
EXTT11=
EXTT12=
EXTT13=
EXTT14=
EXTT15=
EXTT16=
EXTT17=
EXTT18=
EXTT19=
EXTT20=
EXTT21=
EXTT22=
EXTT23=
PLAYORDER=
